<svg width="158" height="36" viewBox="0 0 158 36" fill="none" xmlns="http://www.w3.org/2000/svg">
<path d="M45.002 27.8182V9.5318H46.7315L53.6499 19.4973H52.6863L59.58 9.5318H61.3096V27.8182H59.3329V12.1827L59.9753 12.4282L53.2052 22.1727H53.1063L46.3609 12.4282L46.9786 12.1827V27.8182H45.002Z" fill="#141624"/>
<path d="M71.4138 28.1127C70.1784 28.1127 69.0582 27.8182 68.0534 27.2291C67.0651 26.6236 66.2827 25.7973 65.7061 24.75C65.1296 23.7027 64.8413 22.5163 64.8413 21.1909C64.8413 19.8654 65.1214 18.6954 65.6814 17.6809C66.2415 16.65 66.9992 15.84 67.9546 15.2509C68.9265 14.6618 70.0136 14.3673 71.2161 14.3673C72.1715 14.3673 73.0198 14.5473 73.7611 14.9073C74.5188 15.2509 75.1612 15.7254 75.6884 16.3309C76.2155 16.92 76.619 17.5909 76.8991 18.3436C77.1791 19.08 77.3191 19.8409 77.3191 20.6263C77.3191 20.79 77.3109 20.9782 77.2944 21.1909C77.2779 21.3873 77.2532 21.5918 77.2203 21.8045H66.0273V20.0863H76.1578L75.2683 20.8227C75.4166 19.9227 75.3095 19.1209 74.9471 18.4173C74.6012 17.6973 74.0988 17.1327 73.4399 16.7236C72.781 16.2982 72.0397 16.0854 71.2161 16.0854C70.3925 16.0854 69.6265 16.2982 68.9182 16.7236C68.2264 17.1491 67.6828 17.7463 67.2875 18.5154C66.8921 19.2682 66.7356 20.1682 66.818 21.2154C66.7356 22.2627 66.9004 23.1791 67.3122 23.9645C67.7405 24.7336 68.317 25.3309 69.0418 25.7563C69.783 26.1818 70.5737 26.3945 71.4138 26.3945C72.3857 26.3945 73.201 26.1654 73.8599 25.7073C74.5188 25.2491 75.0542 24.6763 75.466 23.9891L77.0473 24.8236C76.7838 25.4127 76.3802 25.9609 75.8366 26.4682C75.293 26.9591 74.6424 27.36 73.8846 27.6709C73.1434 27.9654 72.3198 28.1127 71.4138 28.1127Z" fill="#141624"/>
<path d="M85.6517 27.9654C84.4657 27.9654 83.5515 27.6218 82.909 26.9345C82.2666 26.2473 81.9454 25.2654 81.9454 23.9891V16.5027H79.4993V14.6618H80.117C80.677 14.6618 81.1218 14.4818 81.4512 14.1218C81.7807 13.7454 81.9454 13.2791 81.9454 12.7227V11.6182H83.7985V14.6618H86.7141V16.5027H83.7985V23.9891C83.7985 24.4309 83.8644 24.8236 83.9962 25.1673C84.128 25.4945 84.3504 25.7563 84.6633 25.9527C84.9928 26.1491 85.4293 26.2473 85.9729 26.2473C86.1047 26.2473 86.2612 26.2391 86.4423 26.2227C86.6235 26.2063 86.78 26.19 86.9118 26.1736V27.8182C86.7141 27.8673 86.4918 27.9 86.2447 27.9163C85.9976 27.9491 85.7999 27.9654 85.6517 27.9654Z" fill="#141624"/>
<path d="M93.7543 28.1127C92.9142 28.1127 92.1647 27.9573 91.5059 27.6463C90.847 27.3191 90.3281 26.8773 89.9492 26.3209C89.5704 25.7645 89.3809 25.1263 89.3809 24.4063C89.3809 23.7191 89.5292 23.0973 89.8257 22.5409C90.1222 21.9682 90.5834 21.4854 91.2093 21.0927C91.8353 20.7 92.6342 20.4218 93.6061 20.2582L98.7949 19.3991V21.0682L94.0508 21.8536C93.0954 22.0173 92.4036 22.32 91.9753 22.7618C91.5635 23.2036 91.3576 23.7273 91.3576 24.3327C91.3576 24.9218 91.5882 25.4209 92.0494 25.83C92.5271 26.2391 93.1366 26.4436 93.8779 26.4436C94.7838 26.4436 95.5745 26.2554 96.2499 25.8791C96.9252 25.4863 97.4524 24.9627 97.8312 24.3082C98.2101 23.6536 98.3995 22.9254 98.3995 22.1236V18.7854C98.3995 18 98.1113 17.3618 97.5347 16.8709C96.9582 16.38 96.2087 16.1345 95.2863 16.1345C94.4791 16.1345 93.7708 16.3391 93.1613 16.7482C92.5518 17.1409 92.0989 17.6563 91.8024 18.2945L90.1222 17.3863C90.3693 16.83 90.7564 16.3227 91.2835 15.8645C91.8271 15.4063 92.4448 15.0463 93.1366 14.7845C93.8284 14.5063 94.545 14.3673 95.2863 14.3673C96.2581 14.3673 97.1147 14.5554 97.8559 14.9318C98.6137 15.3082 99.1984 15.8318 99.6102 16.5027C100.039 17.1573 100.253 17.9182 100.253 18.7854V27.8182H98.3995V25.1918L98.6713 25.4618C98.4407 25.9527 98.0783 26.4027 97.5841 26.8118C97.1064 27.2045 96.5381 27.5236 95.8793 27.7691C95.2368 27.9982 94.5285 28.1127 93.7543 28.1127Z" fill="#141624"/>
<path d="M105.406 27.8182V9.53182H113.189C114.458 9.53182 115.545 9.74455 116.451 10.17C117.357 10.5955 118.049 11.2091 118.526 12.0109C119.004 12.7964 119.243 13.7536 119.243 14.8827C119.243 15.6845 119.021 16.4536 118.576 17.19C118.131 17.91 117.398 18.5155 116.377 19.0064V17.1409C117.349 17.5173 118.098 17.9673 118.625 18.4909C119.152 19.0145 119.515 19.5873 119.712 20.2091C119.91 20.8145 120.009 21.4527 120.009 22.1236C120.009 23.9236 119.408 25.3227 118.205 26.3209C117.003 27.3191 115.331 27.8182 113.189 27.8182H105.406ZM109.236 24.5045H113.634C114.408 24.5045 115.026 24.2836 115.487 23.8418C115.949 23.4 116.179 22.8273 116.179 22.1236C116.179 21.4036 115.949 20.8227 115.487 20.3809C115.026 19.9391 114.408 19.7182 113.634 19.7182H109.236V24.5045ZM109.236 16.4045H113.461C114.054 16.4045 114.524 16.2409 114.87 15.9136C115.232 15.57 115.413 15.12 115.413 14.5636C115.413 14.0073 115.232 13.5655 114.87 13.2382C114.524 12.8945 114.054 12.7227 113.461 12.7227H109.236V16.4045Z" fill="#141624"/>
<path d="M122.194 27.8182V9.23727H125.9V27.8182H122.194Z" fill="#141624"/>
<path d="M135.308 28.1127C133.974 28.1127 132.755 27.81 131.651 27.2045C130.564 26.5991 129.691 25.7727 129.032 24.7255C128.39 23.6618 128.069 22.4591 128.069 21.1173C128.069 19.7591 128.39 18.5564 129.032 17.5091C129.691 16.4618 130.564 15.6355 131.651 15.03C132.755 14.4245 133.974 14.1218 135.308 14.1218C136.643 14.1218 137.853 14.4245 138.941 15.03C140.028 15.6355 140.892 16.4618 141.535 17.5091C142.194 18.5564 142.523 19.7591 142.523 21.1173C142.523 22.4591 142.194 23.6618 141.535 24.7255C140.892 25.7727 140.028 26.5991 138.941 27.2045C137.853 27.81 136.643 28.1127 135.308 28.1127ZM135.308 24.7991C135.984 24.7991 136.568 24.6436 137.063 24.3327C137.573 24.0218 137.969 23.5882 138.249 23.0318C138.545 22.4755 138.693 21.8373 138.693 21.1173C138.693 20.3973 138.545 19.7673 138.249 19.2273C137.969 18.6709 137.573 18.2373 137.063 17.9264C136.568 17.5991 135.984 17.4355 135.308 17.4355C134.633 17.4355 134.04 17.5991 133.529 17.9264C133.019 18.2373 132.615 18.6709 132.319 19.2273C132.039 19.7673 131.899 20.3973 131.899 21.1173C131.899 21.8373 132.039 22.4755 132.319 23.0318C132.615 23.5882 133.019 24.0218 133.529 24.3327C134.04 24.6436 134.633 24.7991 135.308 24.7991Z" fill="#141624"/>
<path d="M151.329 33.2182C150.291 33.2182 149.327 33.0464 148.438 32.7027C147.548 32.3591 146.782 31.8764 146.14 31.2545C145.514 30.6491 145.061 29.9291 144.781 29.0945L148.215 27.8918C148.396 28.5136 148.767 29.0045 149.327 29.3645C149.887 29.7245 150.554 29.9045 151.329 29.9045C151.938 29.9045 152.465 29.79 152.91 29.5609C153.355 29.3482 153.692 29.0291 153.923 28.6036C154.17 28.1782 154.294 27.6791 154.294 27.1064V24.0382L155.01 24.9218C154.549 25.6745 153.956 26.2391 153.231 26.6155C152.506 26.9755 151.658 27.1555 150.686 27.1555C149.434 27.1555 148.314 26.8773 147.326 26.3209C146.337 25.7482 145.563 24.9709 145.003 23.9891C144.443 22.9909 144.163 21.8618 144.163 20.6018C144.163 19.3418 144.443 18.2291 145.003 17.2636C145.563 16.2818 146.329 15.5127 147.301 14.9564C148.273 14.4 149.377 14.1218 150.612 14.1218C151.584 14.1218 152.432 14.3182 153.157 14.7109C153.882 15.0873 154.499 15.6682 155.01 16.4536L154.541 17.3373V14.4164H158V27.1064C158 28.2845 157.712 29.3318 157.135 30.2482C156.558 31.1809 155.768 31.9091 154.763 32.4327C153.775 32.9564 152.63 33.2182 151.329 33.2182ZM151.205 23.8173C151.831 23.8173 152.375 23.6864 152.836 23.4245C153.297 23.1627 153.651 22.7945 153.898 22.32C154.162 21.8455 154.294 21.2891 154.294 20.6509C154.294 20.0127 154.162 19.4564 153.898 18.9818C153.635 18.4909 153.272 18.1145 152.811 17.8527C152.35 17.5745 151.814 17.4355 151.205 17.4355C150.579 17.4355 150.019 17.5745 149.525 17.8527C149.047 18.1145 148.668 18.4909 148.388 18.9818C148.125 19.4564 147.993 20.0127 147.993 20.6509C147.993 21.2727 148.125 21.8209 148.388 22.2955C148.668 22.77 149.047 23.1464 149.525 23.4245C150.019 23.6864 150.579 23.8173 151.205 23.8173Z" fill="#141624"/>
<path d="M18 36C27.9411 36 36 27.9411 36 18C36 8.05888 27.9411 0 18 0C8.05888 0 0 8.05888 0 18C0 22.152 1.40577 25.9756 3.76732 29.021L7.73554 14.0299C9.38672 7.52344 13.6758 4.15725 20.5616 4.15725H22.936C27.7785 4.15725 31.335 8.70307 30.1698 13.4033C29.9609 14.2463 29.5702 15.0334 29.0253 15.7097L27.0045 18.2174C26.486 18.8609 26.2968 19.7092 26.493 20.5121L27.109 23.0338C27.4278 24.339 27.3695 25.708 26.941 26.9814C25.4832 31.3132 21.4227 34.231 16.8521 34.231H10.2086C12.5662 35.3648 15.2089 36 18 36Z" fill="#141624"/>
<path fill-rule="evenodd" clip-rule="evenodd" d="M17.7 21.7592H14.1932C13.0747 21.7592 12.0968 22.5135 11.8129 23.5953L10.4373 28.8354H15.871C17.8811 28.8354 19.6384 27.4799 20.1487 25.5357L20.2666 25.0865C20.7082 23.4043 19.4392 21.7592 17.7 21.7592ZM16.6646 23.3514H14.759C14.1206 23.3514 13.5623 23.7814 13.3993 24.3988L12.6486 27.2432H15.6532C16.7647 27.2432 17.7364 26.4977 18.0186 25.4284L18.0838 25.1814C18.328 24.2562 17.6263 23.3514 16.6646 23.3514Z" fill="#141624"/>
<path fill-rule="evenodd" clip-rule="evenodd" d="M14.9971 11.7427C15.2811 10.6609 16.2589 9.90663 17.3774 9.90663H20.8843C22.6235 9.90663 23.8925 11.5517 23.4509 13.2339L23.333 13.6831C22.8227 15.6273 21.0654 16.9828 19.0553 16.9828H13.6216L14.9971 11.7427ZM16.5836 12.5462C16.7465 11.9289 17.3049 11.4988 17.9433 11.4988H19.8489C20.8106 11.4988 21.5123 12.4036 21.2681 13.3288L21.2029 13.5758C20.9207 14.6451 19.949 15.3907 18.8375 15.3907H15.8329L16.5836 12.5462Z" fill="#141624"/>
</svg>
